<?xml version="1.0" encoding="utf-8"?>
<!-- Generator: Adobe Illustrator 19.0.0, SVG Export Plug-In . SVG Version: 6.00 Build 0)  -->
<svg version="1.1" id="Layer_1" xmlns="http://www.w3.org/2000/svg" xmlns:xlink="http://www.w3.org/1999/xlink" x="0px" y="0px"
	 viewBox="0 0 500 500" style="enable-background:new 0 0 500 500;" xml:space="preserve">
<style type="text/css">
	.st0{fill:#FFFFFF;}
	.st1{fill:#BABABA;}
	.st2{fill:#3B80AE;}
	.st3{fill:#9DC0D7;}
</style>
<g id="XMLID_59_">
	<path id="XMLID_61_" d="M83.8,342.9c-0.5-0.2-1.1-0.3-1.8-0.4c-0.8-0.1-1.4-0.1-2-0.1c-0.9,0-1.6,0.2-2.1,0.7
		c-0.5,0.5-0.7,1.2-0.7,2.2v2.3h4.4v4.6h-4.4v20.6h-7.2v-20.6h-2.4v-4.6h2.4v-3.2c0-2.3,0.8-4.2,2.3-5.7c1.6-1.5,3.5-2.3,5.8-2.3
		c1.2,0,2.3,0.1,3.4,0.3c1.1,0.2,1.8,0.4,2.4,0.7L83.8,342.9L83.8,342.9z"/>
	<path id="XMLID_65_" d="M102.1,355.3c-0.5-0.4-1.1-0.7-1.9-1c-0.8-0.3-1.8-0.4-2.9-0.4c-1.3,0-2.4,0.2-3.3,0.6
		c-0.9,0.4-1.6,0.9-2.2,1.4v17h-7.2v-25.2l7.2-0.5v2.5l2.3-1.4c0.7-0.4,1.5-0.8,2.4-1.1c0.9-0.3,1.8-0.4,2.5-0.4
		c0.8,0,1.5,0.1,2,0.2c0.5,0.1,0.9,0.2,1.1,0.3V355.3L102.1,355.3z"/>
	<path id="XMLID_68_" d="M130.2,361.4h-18.7c0.4,2,1.2,3.5,2.4,4.4c1.2,0.9,2.7,1.4,4.5,1.4c1.4,0,3-0.2,4.7-0.6c1.7-0.4,3-1,4-1.6
		v6.4c-0.9,0.7-2.3,1.2-4.2,1.6c-1.9,0.4-3.3,0.6-4.5,0.6c-4.5,0-7.9-1.2-10.5-3.6c-2.5-2.4-3.8-5.7-3.8-9.8c0-4.1,1.3-7.4,3.8-10
		c2.6-2.5,5.8-3.8,9.6-3.8c3.8,0,6.9,1.4,9.2,4.1C129.1,353,130.3,356.7,130.2,361.4L130.2,361.4z M123.6,358
		c-0.4-1.9-1.1-3.3-2.2-4.3c-1.1-1-2.4-1.4-4-1.4c-1.9,0-3.3,0.5-4.2,1.6c-1,1-1.5,2.4-1.7,4.1H123.6z"/>
	<path id="XMLID_71_" d="M158.6,361.4h-18.7c0.4,2,1.2,3.5,2.4,4.4s2.7,1.4,4.5,1.4c1.4,0,3-0.2,4.7-0.6c1.7-0.4,3-1,4-1.6v6.4
		c-0.9,0.7-2.3,1.2-4.2,1.6c-1.9,0.4-3.3,0.6-4.5,0.6c-4.5,0-7.9-1.2-10.5-3.6c-2.5-2.4-3.8-5.7-3.8-9.8c0-4.1,1.3-7.4,3.8-10
		c2.6-2.5,5.8-3.8,9.6-3.8c3.8,0,6.9,1.4,9.2,4.1C157.5,353,158.7,356.7,158.6,361.4L158.6,361.4z M152,358
		c-0.4-1.9-1.1-3.3-2.2-4.3c-1.1-1-2.4-1.4-4-1.4c-1.9,0-3.3,0.5-4.2,1.6c-1,1-1.5,2.4-1.7,4.1H152z"/>
	<path id="XMLID_74_" d="M186.1,372.9h-5.4l-1.6-2.3l-3.8,2.1c-0.3,0.2-0.8,0.3-1.4,0.4c-0.6,0.1-1.1,0.1-1.6,0.1
		c-3.7,0-6.5-1.2-8.4-3.7c-1.9-2.5-2.9-5.6-2.9-9.4c0-4.1,1.1-7.3,3.5-9.7c2.3-2.4,5.4-3.6,9.2-3.6c1.1,0,2.1,0.1,2.9,0.3
		c0.8,0.2,1.6,0.5,2.4,0.9v-11.1h7.1L186.1,372.9L186.1,372.9z M179.1,365.2V354c-0.4-0.5-1-0.9-2-1.3c-0.9-0.4-1.9-0.5-3-0.5
		c-2,0-3.4,0.6-4.4,1.7c-1,1.2-1.4,3-1.4,5.5c0,2.6,0.5,4.5,1.5,5.8c1,1.3,2.4,1.9,4.2,1.9c1.1,0,2.1-0.2,3-0.6
		C177.8,366.2,178.5,365.7,179.1,365.2L179.1,365.2z"/>
	<path id="XMLID_78_" d="M216.4,361.4h-18.7c0.4,2,1.2,3.5,2.4,4.4c1.2,0.9,2.7,1.4,4.5,1.4c1.4,0,3-0.2,4.7-0.6c1.7-0.4,3-1,4-1.6
		v6.4c-0.9,0.7-2.3,1.2-4.2,1.6c-1.9,0.4-3.3,0.6-4.5,0.6c-4.5,0-7.9-1.2-10.5-3.6c-2.5-2.4-3.8-5.7-3.8-9.8c0-4.1,1.3-7.4,3.8-10
		c2.6-2.5,5.8-3.8,9.6-3.8c3.8,0,6.9,1.4,9.2,4.1C215.3,353,216.4,356.7,216.4,361.4L216.4,361.4z M209.8,358
		c-0.4-1.9-1.1-3.3-2.2-4.3c-1.1-1-2.4-1.4-4-1.4c-1.9,0-3.3,0.5-4.2,1.6c-1,1-1.5,2.4-1.7,4.1H209.8z"/>
	<path id="XMLID_82_" d="M239.3,364.3c0,2.8-1,5-3,6.6c-2,1.7-4.4,2.5-7.3,2.5c-1.4,0-3-0.1-4.9-0.4c-1.9-0.3-3.6-0.8-5.1-1.6v-6.3
		c1.2,0.6,2.5,1.2,3.9,1.7c1.5,0.5,3.2,0.7,5.1,0.7c1.4,0,2.5-0.2,3.4-0.6c0.9-0.4,1.3-1.1,1.3-2.2c0-0.7-0.4-1.2-1.1-1.7
		c-0.7-0.4-2-0.7-3.8-0.9c-3.2-0.3-5.4-1-6.7-2.3c-1.3-1.3-1.9-3-1.9-5.2c0-2.4,1-4.5,2.9-6c2-1.6,4.4-2.4,7.2-2.4
		c1.3,0,2.6,0.1,4,0.3c1.4,0.2,2.6,0.5,3.6,0.8v6.4c-1.3-0.6-2.5-1-3.7-1.2c-1.2-0.3-2.6-0.4-4-0.4c-1.2,0-2.1,0.2-2.7,0.6
		c-0.6,0.4-1,0.8-1,1.4c0,1,0.5,1.6,1.4,1.9c0.9,0.3,1.9,0.5,2.9,0.6c3.1,0.2,5.4,1,7,2.3C238.5,360.2,239.3,362,239.3,364.3
		L239.3,364.3z"/>
	<polygon id="XMLID_83_" points="267.8,372.9 259.2,372.9 252.1,361.9 250.6,363.3 250.6,372.9 243.4,372.9 243.4,336.9 
		250.6,336.9 250.6,356.3 260.3,346.6 265.1,349.8 257.4,357 267.8,372.9 	"/>
	<path id="XMLID_84_" d="M282,368.6l-5.2,4.9c-2.2-0.9-3.8-2.2-4.9-3.9c-1.1-1.7-1.6-3.8-1.6-6.1v-11h-2.4v-4.6h2.4v-8.3l7.2-0.5
		v8.8h3.8v4.6h-3.8v9c0,1.8,0.4,3.3,1.2,4.5C279.5,367,280.6,367.9,282,368.6L282,368.6z"/>
	<path id="XMLID_91_" d="M310.3,359.9c0,4.1-1.2,7.4-3.6,9.9c-2.4,2.5-5.6,3.7-9.8,3.7c-4.5,0-7.8-1.2-10-3.7
		c-2.2-2.5-3.3-5.8-3.3-9.9c0-3.7,1.2-6.9,3.6-9.6c2.4-2.7,5.6-4,9.8-4c4.1,0,7.4,1.2,9.8,3.7C309.1,352.4,310.3,355.7,310.3,359.9
		L310.3,359.9z M303,359.9c0-2-0.5-3.9-1.6-5.4c-1.1-1.6-2.6-2.4-4.5-2.4c-2.2,0-3.7,0.7-4.7,2.2c-0.9,1.4-1.4,3.3-1.4,5.7
		c0,2.2,0.6,4,1.7,5.5c1.1,1.5,2.6,2.3,4.5,2.3c2.1,0,3.6-0.6,4.5-1.9C302.6,364.6,303,362.6,303,359.9L303,359.9z"/>
	<path id="XMLID_94_" d="M339.6,359.6c0,3.9-1.2,7.1-3.6,9.6c-2.4,2.5-5.3,3.8-8.7,3.8c-1.2,0-2.3-0.1-3.2-0.3
		c-1-0.2-1.8-0.4-2.4-0.7v8.5h-7.1v-32.9l6.8-0.5l0.4,1.5l2.4-1.2c0.8-0.4,1.4-0.7,2-0.9c0.6-0.2,1.3-0.3,2.1-0.3
		c3.5,0,6.2,1.3,8.2,3.8C338.6,352.6,339.6,355.8,339.6,359.6L339.6,359.6z M332.4,360c0-2.1-0.5-3.9-1.6-5.4
		c-1.1-1.5-2.6-2.3-4.5-2.3c-1.3,0-2.2,0.2-3,0.6c-0.7,0.4-1.3,0.8-1.6,1.2v11.9c0.4,0.4,1,0.8,1.9,1c0.9,0.3,1.9,0.4,2.9,0.4
		c2,0,3.5-0.6,4.5-1.9C332,364.3,332.4,362.4,332.4,360z"/>
	<rect id="XMLID_95_" x="345" y="365.3" width="7.5" height="7.6"/>
	<path id="XMLID_98_" d="M384.4,359.9c0,4.1-1.2,7.4-3.6,9.9c-2.4,2.5-5.6,3.7-9.8,3.7c-4.5,0-7.8-1.2-10-3.7
		c-2.2-2.5-3.3-5.8-3.3-9.9c0-3.7,1.2-6.9,3.6-9.6c2.4-2.7,5.6-4,9.8-4c4.1,0,7.4,1.2,9.8,3.7C383.2,352.4,384.4,355.7,384.4,359.9
		L384.4,359.9z M377.2,359.9c0-2-0.5-3.9-1.6-5.4c-1.1-1.6-2.6-2.4-4.5-2.4c-2.2,0-3.7,0.7-4.7,2.2c-0.9,1.4-1.4,3.3-1.4,5.7
		c0,2.2,0.6,4,1.7,5.5c1.1,1.5,2.6,2.3,4.5,2.3c2.1,0,3.6-0.6,4.5-1.9C376.7,364.6,377.2,362.6,377.2,359.9L377.2,359.9z"/>
	<path id="XMLID_99_" d="M406.3,355.3c-0.5-0.4-1.1-0.7-1.9-1c-0.8-0.3-1.8-0.4-2.9-0.4c-1.3,0-2.4,0.2-3.3,0.6
		c-0.9,0.4-1.6,0.9-2.2,1.4v17h-7.2v-25.2l7.2-0.5v2.5l2.3-1.4c0.7-0.4,1.5-0.8,2.4-1.1c0.9-0.3,1.8-0.4,2.5-0.4
		c0.8,0,1.5,0.1,2,0.2c0.5,0.1,0.9,0.2,1.1,0.3V355.3L406.3,355.3z"/>
	<path id="XMLID_102_" d="M432.5,369.7c0,1.6-0.3,3-0.9,4.3c-0.6,1.3-1.4,2.3-2.4,3.2c-1,0.9-2,1.6-3.2,2.2c-1.2,0.6-2.3,1-3.4,1.2
		l-6.3,0v-4.1c3.6,0,6-0.3,7.2-1c1.2-0.7,1.9-1.9,1.9-3.5v-1.8l-2.5,1.7c-0.5,0.3-1,0.5-1.6,0.7c-0.6,0.1-1.2,0.2-1.7,0.2
		c-3.5,0-6.3-1.2-8.2-3.6c-1.9-2.4-2.9-5.6-2.9-9.7c0-3.8,1.1-6.9,3.4-9.4c2.3-2.4,5.1-3.7,8.6-3.7c1.1,0,2.3,0.2,3.5,0.6
		c1.2,0.4,2.2,1,3.2,1.8l3.9-1.5l1.5,0.4L432.5,369.7L432.5,369.7z M425.7,364.6v-10.1c-0.4-0.6-0.9-1.2-1.6-1.5
		c-0.6-0.4-1.5-0.6-2.6-0.6c-2.1,0-3.6,0.6-4.4,1.9c-0.9,1.3-1.3,2.8-1.3,4.5c0,2.3,0.5,4.1,1.4,5.6c0.9,1.5,2.3,2.2,4.2,2.2
		c0.9,0,1.8-0.2,2.6-0.5C424.7,365.7,425.3,365.2,425.7,364.6L425.7,364.6z"/>
	<path id="XMLID_103_" class="st0" d="M354.2,220.6c5.1,19.7-6.7,39.8-26.3,44.9l-118.7,31c-19.7,5.1-39.8-6.7-44.9-26.3l-18.6-71.2
		c-5.1-19.7,6.7-39.8,26.3-44.9l118.7-31c19.7-5.1,39.8,6.7,44.9,26.3L354.2,220.6L354.2,220.6"/>
	<path id="XMLID_104_" class="st1" d="M354.2,220.6l-2.4,0.6c0.8,2.9,1.1,5.8,1.1,8.7c0,15.2-10.2,29.2-25.7,33.2l-118.7,31
		c-2.9,0.8-5.8,1.1-8.7,1.1c-15.2,0-29.2-10.2-33.2-25.7l-18.6-71.2c-0.8-2.9-1.1-5.8-1.1-8.7c0-15.2,10.2-29.2,25.7-33.2l118.7-31
		c2.9-0.8,5.8-1.1,8.7-1.1c15.2,0,29.2,10.2,33.2,25.7l18.6,71.2L354.2,220.6l0-2.5h0H351l0.8,3.1L354.2,220.6v2.5h0h3.2L338,148.7
		c-4.6-17.6-20.5-29.3-37.9-29.3c-3.3,0-6.6,0.4-9.9,1.3l-118.7,31c-17.6,4.6-29.3,20.5-29.3,37.9c0,3.3,0.4,6.6,1.3,9.9l18.6,71.2
		c4.6,17.7,20.5,29.3,37.9,29.3c3.3,0,6.6-0.4,9.9-1.3l118.7-31c17.6-4.6,29.3-20.5,29.3-37.9c0-3.3-0.4-6.6-1.3-9.9L354.2,220.6
		v2.5V220.6z"/>
	<path id="XMLID_105_" class="st2" d="M342.2,218c4.4,19.6-4.5,34-23.7,38.5L213.1,284c-18.9,6-35.1-2.9-39.5-22l-15.8-60.6
		c-4.4-20.3,1.8-32.1,23.7-38.5l105.3-27.5c20.3-4.6,35.1,3.4,39.5,22L342.2,218"/>
	<path id="XMLID_108_" class="st3" d="M254.7,244.2l-47.6-45.9l84.6-9.8L254.7,244.2 M301.6,182.4l-105.4,12.2l59.3,57.2l1.6-2.5
		L301.6,182.4"/>
	<path id="XMLID_109_" class="st0" d="M321.9,190.6c1,3.9-1.3,7.8-5.2,8.8l-30.7,8c-3.9,1-7.8-1.3-8.8-5.2l-5.7-21.9
		c-1-3.9,1.3-7.8,5.2-8.8l30.7-8c3.9-1,7.8,1.3,8.8,5.2L321.9,190.6L321.9,190.6z"/>
	<path id="XMLID_110_" class="st2" d="M321.9,190.6l-2.4,0.6c0.1,0.4,0.2,0.8,0.2,1.2c0,2.1-1.4,4.1-3.6,4.6l-30.7,8
		c-0.4,0.1-0.8,0.2-1.2,0.2c-2.1,0-4.1-1.4-4.6-3.6l-5.7-21.9c-0.1-0.4-0.2-0.8-0.2-1.2c0-2.1,1.4-4.1,3.6-4.6l30.7-8
		c0.4-0.1,0.8-0.2,1.2-0.2c2.1,0,4.1,1.4,4.6,3.6l5.7,21.9L321.9,190.6l-2.5,0v0v0.3l0.1,0.3L321.9,190.6h2.5v0v-0.3l-5.8-22.3
		c-1.1-4.4-5.1-7.2-9.4-7.2c-0.8,0-1.6,0.1-2.5,0.3l-30.7,8c-4.4,1.1-7.2,5.1-7.2,9.4c0,0.8,0.1,1.6,0.3,2.5l5.7,21.9
		c1.1,4.4,5.1,7.2,9.4,7.2c0.8,0,1.6-0.1,2.4-0.3l30.8-8c4.4-1.1,7.2-5.1,7.2-9.4c0-0.8-0.1-1.6-0.3-2.5L321.9,190.6h2.5H321.9z"/>
	<path id="XMLID_111_" class="st0" d="M232.6,202.7c1.2,4.7-1.6,9.6-6.3,10.8l-37.7,9.8c-4.7,1.2-9.6-1.6-10.8-6.3l-7-26.9
		c-1.2-4.7,1.6-9.6,6.3-10.8l37.7-9.8c4.7-1.2,9.6,1.6,10.8,6.3L232.6,202.7L232.6,202.7z"/>
	<path id="XMLID_112_" class="st2" d="M232.6,202.7l-2.4,0.6c0.1,0.5,0.2,1.1,0.2,1.6c0,2.8-1.9,5.5-4.8,6.2L188,221
		c-0.5,0.1-1.1,0.2-1.6,0.2c-2.8,0-5.5-1.9-6.2-4.8l-7-26.9c-0.1-0.5-0.2-1.1-0.2-1.6c0-2.8,1.9-5.5,4.8-6.2l37.7-9.8
		c0.5-0.1,1.1-0.2,1.6-0.2c2.8,0,5.5,1.9,6.2,4.8l7,26.9l4.8-0.6v0H232.6l-2.4,0.6L232.6,202.7h-2.5v0L232.6,202.7l2.4-0.6l-7-26.9
		c-1.3-5.1-5.9-8.5-11-8.5c-0.9,0-1.9,0.1-2.9,0.4l-37.7,9.8c-5.1,1.3-8.5,5.9-8.5,11c0,0.9,0.1,1.9,0.4,2.9l7,26.9
		c1.3,5.1,5.9,8.5,11,8.5c0.9,0,1.9-0.1,2.9-0.4l37.7-9.8c5.1-1.3,8.5-5.9,8.5-11c0-0.9-0.1-1.9-0.4-2.9l-4.8,0.6H232.6z"/>
	<path id="XMLID_113_" class="st0" d="M272.5,251.5c0.7,2.7-0.9,5.4-3.6,6.1l-21.1,5.5c-2.7,0.7-5.4-0.9-6.1-3.6l-3.9-15.1
		c-0.7-2.7,0.9-5.4,3.6-6.1l21.1-5.5c2.7-0.7,5.4,0.9,6.1,3.6L272.5,251.5L272.5,251.5z"/>
	<path id="XMLID_114_" class="st2" d="M272.5,251.5l-2.4,0.6c0.1,0.2,0.1,0.4,0.1,0.6c0,1.1-0.8,2.1-1.9,2.4l-21.1,5.5
		c-0.2,0.1-0.4,0.1-0.6,0.1c-1.1,0-2.1-0.7-2.4-1.9l-3.9-15.1c-0.1-0.2-0.1-0.4-0.1-0.6c0-1.1,0.8-2.1,1.9-2.4l21.1-5.5
		c0.2-0.1,0.4-0.1,0.6-0.1c1.1,0,2.1,0.8,2.4,1.9l3.9,15.1L272.5,251.5l-2.5,0v0v0.3l0.1,0.3L272.5,251.5h2.5v0v-0.3l-4-15.4
		c-0.9-3.3-3.9-5.6-7.2-5.6c-0.6,0-1.3,0.1-1.9,0.2l-21.1,5.5l0,0c-3.3,0.9-5.5,3.9-5.5,7.2c0,0.6,0.1,1.3,0.2,1.9l3.9,15.1
		c0.9,3.3,3.9,5.6,7.2,5.6c0.6,0,1.3-0.1,1.9-0.2l21.1-5.5c3.3-0.9,5.6-3.9,5.5-7.2c0-0.6-0.1-1.3-0.2-1.9L272.5,251.5h2.5H272.5z"
		/>
</g>
</svg>
