<?xml version="1.0" encoding="UTF-8"?>
<svg width="256px" height="256px" viewBox="0 0 256 256" version="1.1" xmlns="http://www.w3.org/2000/svg" xmlns:xlink="http://www.w3.org/1999/xlink">
    <!-- Generator: Sketch 64 (93537) - https://sketch.com -->
    <title>icons/github-actions</title>
    <desc>Created with Sketch.</desc>
    <g id="icons/github-actions" stroke="none" stroke-width="1" fill="none" fill-rule="evenodd">
        <g id="github-copy" transform="translate(50.000000, 7.000000)" fill="#000000" fill-rule="nonzero">
            <path d="M79,0 C35.3525,0 0,35.3521055 0,78.9550095 C0,113.846544 22.6335,143.434934 54.01625,153.863575 C57.96625,154.607068 59.4145833,152.166042 59.4145833,150.067155 C59.4145833,148.191973 59.34875,143.224387 59.3158333,136.644803 C37.3406667,141.408422 32.706,126.051673 32.706,126.051673 C29.1115,116.938949 23.91725,114.504503 23.91725,114.504503 C16.7611667,109.609292 24.47025,109.707986 24.47025,109.707986 C32.4031667,110.260671 36.5704167,117.840352 36.5704167,117.840352 C43.6145833,129.913889 55.063,126.426709 59.5791667,124.406777 C60.2901667,119.301019 62.3244167,115.820419 64.5825,113.846544 C47.0379167,111.872669 28.598,105.082538 28.598,74.8296103 C28.598,66.2103551 31.65925,59.1702 36.7284167,53.6433494 C35.8396667,51.6497354 33.1734167,43.6226428 37.4196667,32.7465902 C37.4196667,32.7465902 44.0359167,30.6279641 59.1446667,40.8394787 C65.4646667,39.0827297 72.1796667,38.2142246 78.8946667,38.1747471 C85.6096667,38.2142246 92.3246667,39.0827297 98.6446667,40.8394787 C113.654667,30.6279641 120.270917,32.7465902 120.270917,32.7465902 C124.517167,43.6226428 121.850917,51.6497354 121.060917,53.6433494 C126.097167,59.1702 129.158417,66.2103551 129.158417,74.8296103 C129.158417,105.161493 110.692167,111.839771 93.1146667,113.780748 C95.8796667,116.149399 98.4471667,120.991972 98.4471667,128.387425 C98.4471667,138.954237 98.3484167,147.441901 98.3484167,150.007938 C98.3484167,152.080507 99.7309167,154.547852 103.779667,153.758301 C135.38625,143.402036 158,113.793907 158,78.9550095 C158,35.3521055 122.62775,0 79,0" id="Path"></path>
        </g>
        <path d="M19.7704918,244 L22.7523727,233.317482 L37.1924072,233.317482 L40.2295082,244 L46,244 L33.3822261,203 L26.6177739,203 L14,244 L19.7704918,244 Z M35,229 L23,229 L29,208 L35,229 Z M66.687067,245 C68.138953,245 69.5598537,244.798895 70.9497691,244.396684 C72.3396844,243.994473 73.6897614,243.391156 75,242.586735 L75,242.586735 L75,237.227041 C73.8491147,238.386905 72.6008468,239.242772 71.2551963,239.794643 C69.9095458,240.346514 68.386836,240.622449 66.687067,240.622449 C63.6416474,240.622449 61.2911855,239.570153 59.6356813,237.465561 C57.9801771,235.360969 57.1524249,232.372449 57.1524249,228.5 C57.1524249,224.608844 57.9757506,221.615646 59.6224018,219.520408 C61.2690531,217.42517 63.6239415,216.377551 66.687067,216.377551 C68.3337182,216.377551 69.8077367,216.64881 71.1091224,217.191327 C72.4105081,217.733844 73.7074673,218.613095 75,219.829082 L75,219.829082 L75,214.413265 C73.6189376,213.590136 72.2467283,212.982143 70.8833718,212.589286 C69.5200154,212.196429 68.1212471,212 66.687067,212 C62.0835258,212 58.484796,213.459184 55.8908776,216.377551 C53.2969592,219.295918 52,223.336735 52,228.5 C52,233.663265 53.2969592,237.704082 55.8908776,240.622449 C58.484796,243.540816 62.0835258,245 66.687067,245 Z M107,244 L107,240.013213 L101.486127,240.013213 C99.4084351,240.013213 97.9522752,239.570236 97.1176471,238.684284 C96.2830189,237.798331 95.8657048,236.234353 95.8657048,233.99235 L95.8657048,233.99235 L95.8657048,217.502782 L107,217.502782 L107,213.624478 L95.8657048,213.624478 L95.8657048,205 L90.9644839,205 L90.9644839,213.624478 L83,213.624478 L83,217.502782 L90.9644839,217.502782 L90.9644839,233.99235 C90.9644839,237.662726 91.7192009,240.248261 93.2286349,241.748957 C94.7380688,243.249652 97.3307436,244 101.006659,244 L101.006659,244 L107,244 Z M135,208 L135,202 L130,202 L130,208 L135,208 Z M145,244 L145,240.155914 L135.016411,240.155914 L135.016411,214 L122.133479,214 L122.133479,217.844086 L129.983589,217.844086 L129.983589,240.155914 L120,240.155914 L120,244 L145,244 Z M163.986444,245 C168.21585,245 171.442127,243.592262 173.665276,240.776786 C175.888425,237.96131 177,233.869048 177,228.5 C177,223.14966 175.883907,219.062075 173.651721,216.237245 C171.419534,213.412415 168.197775,212 163.986444,212 C159.775113,212 156.557873,213.412415 154.334724,216.237245 C152.111575,219.062075 151,223.14966 151,228.5 C151,233.869048 152.111575,237.96131 154.334724,240.776786 C156.557873,243.592262 159.775113,245 163.986444,245 Z M163.98594,240 C161.361453,240 159.374341,239.028356 158.024605,237.085069 C156.674868,235.141782 156,232.280093 156,228.5 C156,224.70216 156.674868,221.836034 158.024605,219.90162 C159.374341,217.967207 161.361453,217 163.98594,217 C166.629174,217 168.625659,217.967207 169.975395,219.90162 C171.325132,221.836034 172,224.70216 172,228.5 C172,232.280093 171.325132,235.141782 169.975395,237.085069 C168.625659,239.028356 166.629174,240 163.98594,240 Z M190.943925,244 L190.943925,226.891892 C190.943925,223.810811 191.566394,221.445946 192.811332,219.797297 C194.056269,218.148649 195.834112,217.324324 198.14486,217.324324 C200.169003,217.324324 201.655763,217.963964 202.60514,219.243243 C203.554517,220.522523 204.029206,222.522523 204.029206,225.243243 L204.029206,225.243243 L204.029206,244 L209,244 L209,225.243243 C209,221.135135 208.243185,218.067568 206.729556,216.040541 C205.215927,214.013514 202.92757,213 199.864486,213 C197.804517,213 196.022196,213.445946 194.517523,214.337838 C193.01285,215.22973 191.821651,216.540541 190.943925,218.27027 L190.943925,218.27027 L190.943925,213.72973 L186,213.72973 L186,244 L190.943925,244 Z M230.990208,245 C234.760098,245 237.704202,244.125425 239.822521,242.376276 C241.94084,240.627126 243,238.19983 243,235.094388 C243,232.755952 242.367197,230.857143 241.101591,229.397959 C239.835985,227.938776 237.97348,226.965986 235.514076,226.479592 L235.514076,226.479592 L233.52142,226.086735 C230.23623,225.431973 228.180743,224.758503 227.354957,224.066327 C226.529172,223.37415 226.116279,222.326531 226.116279,220.923469 C226.116279,219.370748 226.668299,218.215561 227.772338,217.457908 C228.876377,216.700255 230.550388,216.321429 232.79437,216.321429 C234.284374,216.321429 235.74745,216.536565 237.183599,216.966837 C238.619747,217.397109 240.04692,218.042517 241.465116,218.903061 L241.465116,218.903061 L241.465116,213.852041 C240.028968,213.234694 238.565891,212.771684 237.075887,212.46301 C235.585883,212.154337 234.033048,212 232.417381,212 C228.791106,212 225.999592,212.818452 224.04284,214.455357 C222.086087,216.092262 221.107711,218.416667 221.107711,221.428571 C221.107711,223.804422 221.762954,225.679847 223.073439,227.054847 C224.383925,228.429847 226.46634,229.407313 229.320685,229.987245 L229.320685,229.987245 L231.178703,230.380102 L231.394125,230.436224 C235.79233,231.352891 237.991432,233.008503 237.991432,235.403061 C237.991432,237.068027 237.390045,238.36352 236.187271,239.289541 C234.984496,240.215561 233.288046,240.678571 231.097919,240.678571 C229.589963,240.678571 227.992248,240.430697 226.304774,239.934949 C224.617299,239.439201 222.849041,238.695578 221,237.704082 L221,237.704082 L221,243.035714 C222.902897,243.690476 224.671155,244.181548 226.304774,244.508929 C227.938392,244.83631 229.500204,245 230.990208,245 Z" id="Actions" fill="#6A737D" fill-rule="nonzero"></path>
    </g>
</svg>